#tb 0: 1/12
0,          0,          0,        1,     9600, 0xc5921aa2
0,          1,          1,        1,     9600, 0x9032fc52
0,          2,          2,        1,     9600, 0x7db0038e
0,          3,          3,        1,     9600, 0x95b73c41
0,          4,          4,        1,     9600, 0x531e4189
0,          5,          5,        1,     9600, 0xb73390ec
0,          6,          6,        1,     9600, 0x958e8221
0,          7,          7,        1,     9600, 0xd393f8a6
0,          8,          8,        1,     9600, 0xa085da1c
0,          9,          9,        1,     9600, 0x57ace74f
0,         10,         10,        1,     9600, 0x5d11a308
0,         11,         11,        1,     9600, 0x13e133b7
0,         12,         12,        1,     9600, 0x494edb86
0,         13,         13,        1,     9600, 0x43a448ea
0,         14,         14,        1,     9600, 0x3562d35b
0,         15,         15,        1,     9600, 0x0bc655d2
0,         16,         16,        1,     9600, 0xbece73a1
0,         17,         17,        1,     9600, 0x82e7cfa1
0,         18,         18,        1,     9600, 0xda29fd8f
0,         19,         19,        1,     9600, 0x70fb700b
0,         20,         20,        1,     9600, 0xaf57a6b0
0,         21,         21,        1,     9600, 0x0a5ed9b9
0,         22,         22,        1,     9600, 0xf7c62c38
0,         23,         23,        1,     9600, 0x0aa2ccfd
0,         24,         24,        1,     9600, 0xc9adabae
0,         25,         25,        1,     9600, 0x67ff0aba
0,         26,         26,        1,     9600, 0xea79a465
0,         27,         27,        1,     9600, 0x8928c626
0,         28,         28,        1,     9600, 0x8dab4111
0,         29,         29,        1,     9600, 0x81ef63f9
0,         30,         30,        1,     9600, 0xf977bc5e
0,         31,         31,        1,     9600, 0x9e6a3f4a
0,         32,         32,        1,     9600, 0x77c92865
0,         33,         33,        1,     9600, 0x3915170d
0,         34,         34,        1,     9600, 0xbe19b995
0,         35,         35,        1,     9600, 0x3e8a3077
0,         36,         36,        1,     9600, 0x1331342e
0,         37,         37,        1,     9600, 0x4d692175
